<?xml version="1.0" standalone="no"?>
<!DOCTYPE svg PUBLIC "-//W3C//DTD SVG 20010904//EN"
 "http://www.w3.org/TR/2001/REC-SVG-20010904/DTD/svg10.dtd">
<svg version="1.0" xmlns="http://www.w3.org/2000/svg"
 width="677.000000pt" height="677.000000pt" viewBox="0 0 677.000000 677.000000"
 preserveAspectRatio="xMidYMid meet">
<metadata>
Created by potrace 1.14, written by Peter Selinger 2001-2017
</metadata>
<g transform="translate(0.000000,677.000000) scale(0.100000,-0.100000)"
fill="#000000" stroke="none">
<path d="M3165 6590 c-72 -10 -131 -22 -205 -45 -30 -9 -67 -19 -82 -22 -15
-3 -33 -11 -39 -19 -6 -8 -18 -14 -26 -14 -24 0 -159 -70 -200 -104 -21 -17
-50 -38 -65 -45 -15 -8 -30 -22 -34 -33 -3 -10 -16 -24 -30 -31 -24 -12 -224
-204 -224 -215 0 -3 -7 -12 -15 -21 -185 -197 -318 -355 -330 -395 -5 -18 -18
-44 -27 -59 -10 -14 -18 -31 -18 -37 0 -14 -76 -117 -94 -127 -8 -4 -31 -30
-52 -57 -29 -39 -34 -50 -23 -58 12 -8 11 -9 -1 -5 -19 5 -39 -21 -40 -50 0
-13 -4 -23 -8 -23 -11 0 -73 -86 -67 -92 8 -8 -23 -76 -36 -80 -6 -2 -12 -18
-13 -35 -1 -17 -9 -39 -17 -50 -9 -10 -20 -29 -24 -43 -4 -14 -13 -38 -20 -55
-7 -16 -23 -56 -34 -88 -12 -32 -32 -75 -46 -95 -14 -20 -25 -43 -25 -51 0 -8
-10 -28 -23 -45 -12 -17 -24 -47 -26 -66 -2 -19 -7 -40 -12 -46 -5 -6 -11 -33
-14 -60 -3 -27 -8 -66 -11 -87 -3 -25 -1 -36 6 -32 15 9 12 -59 -6 -121 -18
-61 -29 -69 -32 -22 -4 46 -12 48 -12 2 -1 -21 -3 -77 -5 -124 -2 -46 0 -89 5
-95 5 -6 5 -27 0 -50 -19 -89 -31 -166 -25 -175 3 -4 -3 -11 -13 -14 -17 -6
-26 -46 -10 -46 4 0 8 -4 8 -10 0 -5 -6 -10 -14 -10 -11 0 -13 -13 -10 -62 2
-36 -1 -67 -7 -75 -9 -9 -8 -17 1 -28 9 -10 9 -15 1 -15 -6 0 -11 -6 -11 -13
0 -8 -9 -22 -20 -32 -14 -12 -17 -22 -11 -28 7 -7 3 -14 -11 -21 -26 -13 -39
-42 -14 -33 19 7 20 3 6 -24 -7 -12 -7 -19 -1 -19 6 0 7 -8 4 -17 -6 -16 -5
-16 10 -4 9 7 17 19 17 26 0 18 37 48 49 40 20 -12 11 -53 -20 -86 -23 -24
-27 -34 -17 -41 10 -6 10 -10 -2 -18 -13 -8 -13 -10 1 -10 11 0 15 -8 13 -32
-4 -34 2 -26 21 30 12 35 20 26 22 -27 1 -35 -3 -51 -13 -55 -20 -8 -17 -34 6
-48 23 -15 26 -49 8 -125 -7 -30 -18 -53 -25 -53 -9 0 -11 8 -7 25 5 19 2 25
-10 25 -19 0 -19 4 -5 -60 10 -47 9 -54 -9 -73 -14 -15 -23 -43 -28 -87 -6
-60 -43 -158 -44 -117 0 9 -4 17 -10 17 -5 0 -8 14 -6 30 5 44 -14 124 -26
112 -16 -16 -28 -81 -14 -76 7 3 12 -6 14 -21 1 -14 -3 -25 -8 -25 -14 0 -12
-34 2 -48 9 -9 9 -15 3 -20 -18 -12 -18 -79 -1 -85 9 -4 16 -11 16 -18 0 -6
-7 -9 -15 -5 -12 4 -15 -3 -15 -29 0 -18 -7 -41 -16 -50 -12 -11 -14 -25 -10
-51 4 -19 9 -62 11 -95 3 -33 9 -68 14 -76 5 -9 5 -29 1 -45 -5 -15 -5 -28 0
-28 13 0 23 -51 23 -115 -1 -38 1 -46 4 -22 3 23 9 37 19 37 10 0 14 -14 16
-52 2 -65 1 -68 -3 -93 -3 -13 1 -19 9 -17 8 1 12 -3 9 -10 -2 -7 -16 -12 -31
-11 -18 1 -26 -3 -26 -15 0 -9 -3 -28 -7 -41 -4 -17 -3 -22 5 -17 7 4 12 16
12 27 0 27 30 24 31 -3 1 -13 3 -35 5 -51 3 -26 -20 -97 -32 -97 -3 0 -5 15
-3 32 1 18 1 44 -1 58 l-2 25 -8 -25 c-4 -14 -8 -52 -9 -85 -1 -61 -1 -61 -50
-98 -26 -20 -54 -37 -61 -37 -6 0 -24 -8 -38 -19 -15 -10 -38 -22 -52 -26 -35
-11 -100 -42 -131 -63 -131 -86 -200 -109 -344 -116 -49 -2 -103 -8 -120 -12
-71 -18 -171 -94 -209 -158 l-26 -45 0 -510 0 -511 3375 0 3375 0 0 569 c0
493 -2 570 -15 581 -8 7 -15 16 -15 21 0 8 -26 35 -148 152 -40 38 -72 75 -72
83 0 7 -6 11 -13 8 -7 -2 -19 7 -27 21 -7 14 -18 25 -23 25 -13 0 -67 53 -67
66 0 7 -7 14 -15 18 -11 4 -15 20 -15 54 0 47 1 50 31 56 16 3 37 13 46 21 12
13 18 13 31 3 13 -11 15 -11 10 2 -41 117 -41 117 -74 129 -19 7 -34 18 -34
26 0 7 -6 15 -14 18 -8 3 -18 27 -22 54 -10 71 -23 98 -23 51 l-1 -37 -47 45
c-43 42 -45 47 -28 56 17 10 17 12 -6 29 -18 13 -24 27 -24 58 0 22 -3 34 -7
28 -4 -7 -8 7 -8 31 0 23 5 42 11 42 5 0 7 5 4 10 -3 6 1 10 9 10 19 0 19 2 5
34 -7 14 -8 33 -4 43 5 10 7 26 6 36 -1 10 2 24 8 31 6 8 9 32 6 56 -5 39 -4
42 15 37 13 -3 20 0 20 9 0 8 5 14 11 14 7 0 9 10 5 26 -5 17 -2 32 7 43 8 9
18 27 21 41 6 23 5 23 -6 6 -38 -55 -41 -57 -70 -44 -39 18 -41 31 -19 107 11
36 23 84 26 106 4 22 14 51 22 64 11 17 12 25 4 31 -7 3 -9 14 -5 23 3 10 1
17 -5 17 -6 0 -16 -12 -21 -26 -6 -14 -14 -23 -19 -20 -5 4 -11 0 -14 -6 -2
-7 -8 0 -12 16 -5 17 -4 31 3 35 5 3 8 21 6 39 -2 18 0 31 5 27 14 -8 24 14
14 28 -5 7 -18 34 -28 61 -12 34 -20 44 -26 35 -6 -9 -9 -10 -9 -2 0 6 -3 18
-6 27 -4 11 -1 16 10 16 19 0 20 13 4 40 -7 10 -8 23 -4 27 5 4 11 2 13 -5 3
-7 11 -18 18 -26 7 -7 13 -19 13 -27 -2 -32 3 -49 13 -49 6 0 8 9 4 22 -6 18
-4 20 11 14 16 -6 15 -4 -3 14 -14 12 -23 33 -23 50 0 17 -4 30 -10 30 -19 0
-45 53 -49 103 -1 5 -5 6 -10 2 -5 -3 -12 -1 -15 4 -3 5 1 11 9 15 10 4 15 18
14 48 -1 26 -3 33 -6 18 -8 -51 -13 -57 -29 -36 -16 23 -19 40 -4 31 6 -3 10
3 10 13 0 11 7 22 15 26 9 3 15 18 15 38 0 41 13 63 31 53 9 -6 10 -3 4 11 -4
10 -13 34 -19 52 -6 17 -17 32 -23 32 -7 0 -13 9 -13 20 0 11 -7 20 -15 20 -9
0 -15 6 -13 13 3 18 -12 57 -23 57 -5 0 -9 5 -9 10 0 17 20 11 46 -15 14 -14
29 -25 34 -25 4 0 10 -6 13 -12 8 -22 19 -1 12 22 -4 12 -21 28 -38 35 -18 8
-28 14 -24 15 4 0 -19 27 -52 59 -34 33 -61 65 -61 70 0 6 -8 11 -18 11 -23 0
-52 30 -52 53 0 9 -12 22 -27 29 -33 16 -40 40 -18 62 12 12 13 20 5 35 -5 11
-11 32 -11 48 -1 17 -3 21 -6 11 -10 -38 -35 -16 -70 60 -35 73 -37 82 -37
187 -1 61 2 124 6 140 20 82 35 182 29 195 -3 8 -6 48 -6 87 0 49 -4 74 -12
78 -9 3 -13 26 -13 64 0 33 -4 63 -10 66 -5 3 -10 15 -10 26 0 24 -47 119 -59
119 -9 0 -61 100 -61 119 0 10 8 12 30 8 17 -4 30 -5 30 -3 0 2 -46 30 -102
62 -242 136 -420 275 -499 388 -19 28 -55 71 -80 96 -24 25 -60 76 -79 113
-19 37 -37 67 -40 67 -3 0 -26 28 -50 62 -52 72 -185 208 -203 208 -7 0 -4 -5
6 -11 9 -5 17 -14 17 -20 0 -5 -11 -2 -25 7 -14 9 -25 23 -25 31 0 8 -9 17
-20 20 -11 3 -20 9 -20 14 0 5 -17 17 -37 27 -21 10 -51 26 -68 35 -42 22
-154 73 -192 87 -18 7 -33 15 -33 19 0 9 -83 31 -118 31 -15 0 -61 11 -102 24
-61 20 -87 24 -140 19 -36 -3 -76 -11 -90 -18 -63 -33 -138 -64 -165 -71 -16
-4 -36 -11 -43 -17 -17 -14 -83 7 -119 37 -44 37 -145 83 -183 83 -19 0 -62
-3 -95 -7z m281 -650 c15 -6 33 -18 40 -28 12 -14 15 -15 23 -3 7 11 13 12 23
4 7 -6 30 -15 50 -21 30 -8 36 -8 31 4 -6 15 12 20 21 5 7 -10 56 -9 72 1 6 4
26 3 45 -2 21 -6 46 -6 68 0 19 5 39 6 44 3 6 -4 94 -7 195 -9 153 -1 186 -4
193 -17 7 -11 20 -13 55 -9 32 3 45 2 40 -6 -3 -6 4 -13 16 -17 40 -12 85 -34
97 -49 7 -8 18 -13 24 -10 7 2 30 -19 52 -47 22 -29 48 -61 58 -71 10 -10 27
-37 38 -58 12 -22 25 -43 30 -46 5 -3 9 -16 9 -30 0 -13 3 -23 8 -23 4 1 10 0
15 -1 4 -1 13 -3 19 -4 7 0 14 -10 16 -20 2 -10 13 -28 24 -40 18 -20 38 -58
52 -99 3 -11 14 -21 24 -24 25 -6 67 -79 83 -143 7 -30 12 -59 11 -64 -2 -5 1
-12 5 -15 18 -13 30 -57 22 -84 -5 -17 -2 -50 7 -84 8 -31 12 -63 10 -70 -3
-7 -1 -34 5 -61 15 -63 19 -126 9 -142 -6 -9 -12 -9 -29 -1 -17 10 -21 9 -21
-3 0 -8 11 -16 26 -18 25 -3 27 -7 29 -58 2 -30 6 -70 10 -89 6 -26 5 -33 -6
-29 -8 3 -14 11 -14 19 0 8 -8 25 -18 39 -9 13 -13 26 -9 30 11 8 11 40 0 40
-5 0 -6 5 -3 10 3 6 -1 10 -10 10 -9 0 -14 -4 -10 -9 8 -14 -32 -33 -58 -28
-18 4 -17 5 6 6 15 0 27 5 27 9 0 15 -22 30 -36 25 -8 -3 -22 9 -35 31 -11 20
-25 36 -30 36 -5 0 -9 7 -9 15 0 18 -74 55 -112 55 -34 0 -37 -17 -5 -30 l22
-9 -22 0 c-21 -1 -49 8 -99 31 -12 6 -31 7 -42 4 -13 -5 -22 -1 -26 10 -5 13
-9 14 -20 5 -11 -9 -23 -8 -51 4 -35 14 -36 14 -24 -2 13 -15 11 -16 -16 -10
-20 4 -45 -1 -73 -15 -38 -18 -49 -19 -84 -9 -25 8 -44 9 -51 3 -7 -5 -30 -15
-52 -22 -22 -7 -53 -22 -70 -34 -16 -12 -49 -28 -72 -34 -32 -10 -43 -18 -43
-32 0 -24 13 -25 46 -4 13 9 27 14 30 11 8 -8 -95 -83 -109 -79 -6 2 -4 -5 4
-14 8 -10 9 -15 3 -11 -7 4 -14 -2 -17 -15 -6 -20 -7 -20 -31 -4 -21 13 -24
14 -20 1 9 -22 -4 -65 -20 -65 -7 0 -19 -14 -26 -30 -7 -17 -21 -37 -32 -44
-18 -13 -18 -14 7 -20 17 -4 25 -13 25 -27 0 -25 -12 -24 -127 10 -40 12 -99
22 -130 22 -47 1 -52 3 -28 9 23 5 17 7 -29 7 -32 0 -61 5 -65 10 -3 5 -14 12
-24 16 -10 4 -15 12 -11 18 3 6 2 14 -3 18 -5 3 -23 33 -39 66 -29 60 -75 115
-96 115 -6 0 -9 2 -6 5 9 9 -60 77 -71 70 -6 -3 -11 -1 -11 4 0 6 -7 11 -15
11 -9 0 -18 6 -21 14 -8 21 -104 59 -144 58 -25 -1 -31 1 -20 8 30 19 -64 37
-145 29 -11 -2 -37 -2 -59 -1 -29 2 -37 6 -33 16 9 24 -91 18 -104 -6 -5 -10
-16 -18 -24 -18 -7 0 -15 -6 -18 -12 -2 -7 -8 -10 -12 -6 -4 4 -4 15 0 25 5
10 7 26 6 36 -1 10 4 17 15 17 12 0 15 3 8 10 -13 13 -84 0 -84 -15 0 -7 -7
-16 -16 -19 -9 -4 -14 -13 -10 -21 3 -10 -1 -18 -12 -22 -9 -4 -26 -17 -37
-29 -11 -13 -33 -28 -49 -34 l-29 -11 7 63 c4 34 16 79 27 99 10 21 19 44 19
51 0 7 8 18 19 25 12 7 17 21 16 38 -2 16 2 28 11 32 10 4 13 18 10 51 -2 26
0 56 4 67 4 11 8 23 9 28 0 4 12 28 26 55 14 26 25 51 25 56 0 5 10 18 23 30
12 12 23 29 25 38 3 20 32 57 81 104 19 19 32 36 29 39 -3 4 5 18 18 32 13 14
24 37 24 49 0 13 9 33 20 44 11 11 20 25 20 31 0 5 4 8 9 5 4 -3 6 6 3 21 -3
18 -1 24 7 19 6 -4 15 3 21 18 5 14 14 26 20 26 6 0 14 8 17 18 4 9 14 23 22
30 14 11 14 11 -1 6 -10 -3 -18 -1 -18 4 0 6 8 16 18 21 9 6 13 11 7 12 -5 0
1 4 15 8 14 4 24 13 22 20 -1 7 5 11 15 9 10 -1 23 0 28 4 89 54 103 58 207
58 57 0 119 1 138 4 19 2 43 0 52 -5 13 -7 20 -4 28 11 12 23 18 24 56 10z
m2149 -620 c3 -5 2 -10 -4 -10 -5 0 -13 5 -16 10 -3 6 -2 10 4 10 5 0 13 -4
16 -10z m-4189 -716 c-4 -9 -9 -15 -11 -12 -3 3 -3 13 1 22 4 9 9 15 11 12 3
-3 3 -13 -1 -22z m3108 -95 c-8 -8 -14 -21 -14 -27 0 -7 -8 -13 -17 -13 -16
-1 -16 -2 0 -6 10 -3 24 3 31 12 7 10 24 19 39 20 24 3 26 1 16 -17 -10 -18
-8 -19 20 -13 21 4 31 3 31 -5 0 -6 5 -8 10 -5 6 3 10 1 10 -6 0 -8 12 -9 38
-5 34 6 36 5 18 -9 -11 -8 -28 -15 -38 -15 -10 0 -18 -4 -18 -9 0 -5 -16 -12
-35 -15 -26 -5 -40 -3 -52 9 -10 10 -24 14 -37 10 -44 -13 -56 -13 -61 -4 -4
5 -17 6 -31 3 -14 -4 -24 -2 -24 5 0 6 9 11 20 11 40 0 16 25 -45 45 -17 6
-15 8 15 19 19 7 43 17 53 22 10 6 33 10 52 10 30 -1 32 -3 19 -17z m-396 -45
c8 -15 10 -15 15 0 5 12 20 16 62 16 48 0 55 -2 55 -20 0 -24 -6 -25 -27 -4
-14 14 -18 13 -38 -6 -16 -15 -30 -20 -44 -15 -14 4 -31 -2 -53 -18 -18 -14
-44 -28 -58 -32 -14 -4 -40 -14 -58 -22 -30 -14 -34 -14 -52 2 -19 17 -18 18
9 47 54 58 168 89 189 52z m639 -46 c-21 -57 -20 -61 6 -54 34 8 57 -2 57 -25
0 -12 -7 -19 -20 -19 -11 0 -20 -4 -20 -10 0 -5 -7 -10 -15 -10 -18 0 -20 16
-2 24 6 3 0 3 -15 0 -16 -4 -36 0 -50 10 -12 9 -30 16 -40 16 -42 0 -5 54 48
70 42 12 57 12 51 -2z m-3160 -102 c-4 -9 -11 -16 -17 -16 -11 0 -14 49 -3 77
6 15 9 13 16 -14 5 -18 7 -39 4 -47z m-277 60 c0 -3 -4 -8 -10 -11 -5 -3 -10
-1 -10 4 0 6 5 11 10 11 6 0 10 -2 10 -4z m3535 -6 c8 -13 -5 -13 -25 0 -13 8
-13 10 2 10 9 0 20 -4 23 -10z m-1368 -36 c-3 -3 -12 -4 -19 -1 -8 3 -5 6 6 6
11 1 17 -2 13 -5z m1606 -1 c-7 -2 -21 -2 -30 0 -10 3 -4 5 12 5 17 0 24 -2
18 -5z m95 -21 c3 -17 -2 -22 -17 -22 -14 0 -23 -9 -27 -25 -9 -35 -24 -31
-24 6 0 22 5 32 20 36 11 3 20 12 20 20 0 23 25 9 28 -15z m-1752 3 c-22 -17
-46 -20 -46 -6 0 10 22 18 50 20 11 0 10 -4 -4 -14z m-1296 -21 c0 -8 -4 -12
-10 -9 -5 3 -10 10 -10 16 0 5 5 9 10 9 6 0 10 -7 10 -16z m2938 -18 c-10 -7
-18 -16 -18 -19 0 -3 8 -8 18 -10 13 -4 11 -5 -5 -6 -14 -1 -23 5 -23 13 0 8
-3 21 -6 29 -3 10 1 17 13 19 27 7 41 -11 21 -26z m-3024 8 c9 -23 8 -24 -13
-24 -14 0 -18 5 -14 20 6 24 19 26 27 4z m1794 -15 c-6 -16 -13 -28 -15 -25
-8 8 6 56 17 56 5 0 5 -13 -2 -31z m-140 1 l42 -19 0 -71 c0 -132 98 -295 258
-430 111 -94 236 -140 387 -140 84 0 120 9 248 58 182 71 257 142 358 342 22
44 44 80 49 80 11 0 23 -152 18 -216 -3 -27 -14 -107 -26 -179 -42 -261 -53
-331 -58 -375 -3 -25 -13 -52 -22 -60 -10 -9 -16 -26 -14 -43 2 -15 0 -27 -5
-26 -28 5 -33 -3 -29 -46 3 -34 1 -45 -10 -45 -8 0 -14 -7 -14 -15 0 -11 -5
-12 -26 -5 -29 11 -44 6 -44 -16 0 -8 -9 -14 -20 -14 -11 0 -19 -6 -18 -12 2
-7 -3 -12 -9 -10 -8 1 -13 -9 -13 -24 0 -20 -4 -25 -16 -20 -13 5 -14 2 -8
-11 9 -21 8 -73 -2 -82 -3 -3 -13 4 -21 17 -9 12 -25 22 -37 21 -14 0 -16 -2
-6 -6 32 -12 40 -24 27 -44 -9 -14 -9 -21 0 -30 10 -10 9 -15 -4 -24 -11 -8
-16 -25 -15 -54 1 -22 -3 -41 -8 -41 -6 0 -10 -9 -10 -19 0 -11 -5 -23 -12
-27 -7 -4 -8 -3 -4 4 4 7 2 20 -3 29 -9 16 -10 16 -11 -3 0 -31 -20 -84 -32
-84 -6 0 -8 15 -6 34 2 21 0 32 -7 30 -14 -6 -38 57 -25 70 5 5 6 22 3 38 -4
21 -2 27 8 23 22 -8 33 6 45 53 9 34 9 42 -2 42 -8 0 -14 5 -14 10 0 14 23 13
38 -2 9 -9 12 -9 12 0 0 7 -7 15 -15 18 -12 5 -13 10 -4 20 8 10 6 24 -9 56
-11 24 -23 53 -27 65 -3 12 -15 25 -26 28 -10 4 -19 14 -19 24 0 25 -27 78
-63 124 -16 21 -27 40 -24 44 6 6 -46 53 -59 53 -11 1 -64 46 -64 55 0 3 -14
21 -32 40 -43 47 -124 99 -144 91 -12 -4 -15 -2 -10 9 4 11 -1 15 -19 15 -23
0 -25 -3 -25 -51 0 -44 4 -54 30 -77 17 -15 30 -31 30 -37 0 -6 16 -29 35 -51
27 -29 35 -46 33 -69 -3 -26 -7 -30 -33 -30 -16 -1 -38 -5 -49 -9 -10 -5 -21
-5 -25 0 -14 20 -48 33 -59 22 -6 -6 -48 -10 -101 -9 -83 2 -98 -1 -178 -33
-75 -31 -93 -35 -122 -26 -18 5 -39 15 -47 21 -11 9 -24 9 -55 0 -35 -11 -44
-10 -72 8 -34 21 -117 108 -117 122 0 5 -9 14 -20 21 -11 7 -20 18 -20 24 0 6
-7 17 -15 24 -9 8 -12 17 -7 24 5 6 7 38 6 71 -4 72 13 151 39 185 13 17 15
26 7 28 -7 3 -15 0 -19 -6 -10 -15 -74 -52 -93 -52 -9 0 -18 -5 -20 -10 -2 -6
-17 -13 -33 -16 -17 -3 -34 -9 -40 -15 -5 -5 -18 -9 -30 -9 -27 0 -75 -22 -75
-35 0 -5 -22 -31 -50 -57 -27 -26 -50 -52 -50 -57 0 -6 -13 -18 -30 -28 -16
-9 -30 -23 -30 -31 0 -7 -14 -18 -31 -24 -26 -9 -30 -14 -24 -35 5 -20 1 -26
-24 -36 -18 -6 -31 -19 -33 -32 -2 -13 -9 -19 -22 -17 -14 3 -17 -1 -13 -12 4
-10 1 -16 -7 -16 -37 0 -75 -54 -53 -76 14 -14 6 -24 -11 -15 -14 7 -21 5 -30
-9 -10 -16 -9 -18 9 -15 13 3 19 0 16 -8 -2 -6 -12 -12 -23 -13 -55 -2 -60 -4
-44 -14 13 -8 13 -10 -1 -10 -24 0 -29 10 -18 38 7 18 6 27 -3 33 -11 7 -11
12 0 29 11 18 10 21 -13 30 -15 6 -33 10 -41 10 -8 0 -16 15 -20 40 -5 27 -12
40 -23 40 -21 1 -64 68 -58 92 3 10 1 21 -4 24 -11 6 -12 104 -1 120 4 6 17
16 30 23 12 6 22 21 22 33 0 12 7 30 17 40 9 10 11 18 5 18 -6 0 -14 -4 -17
-10 -3 -5 -12 -10 -18 -9 -9 0 -9 2 0 6 9 3 10 10 4 22 -9 15 -2 14 60 -6 91
-29 96 -33 74 -50 -16 -11 1 -13 117 -13 118 0 152 4 253 30 104 26 127 36
202 87 46 32 96 66 110 75 14 9 29 21 32 26 3 6 13 12 20 14 20 4 91 78 91 93
0 8 6 20 13 27 21 21 47 158 46 236 -1 40 1 76 4 78 14 14 87 33 127 33 25 0
64 -8 88 -19z m746 -5 c11 -8 28 -15 38 -15 29 0 78 -29 78 -45 0 -18 -18 -19
-56 -4 -16 5 -55 12 -89 14 -57 4 -131 23 -94 24 9 1 19 10 22 21 4 16 13 20
44 20 21 0 47 -7 57 -15z m-2276 -10 c1 -1 -2 -14 -7 -29 -11 -28 -46 -35 -82
-16 -18 10 -26 40 -13 53 6 5 94 -2 102 -8z m1609 -22 c-3 -10 -5 -4 -5 12 0
17 2 24 5 18 2 -7 2 -21 0 -30z m1237 -67 c-3 -15 -8 -25 -11 -23 -2 3 -1 17
3 31 3 15 8 25 11 23 2 -3 1 -17 -3 -31z m-1145 -9 c-21 -17 -21 -19 -4 -13
16 5 21 1 22 -14 2 -22 -22 -28 -30 -7 -4 8 -6 9 -6 0 -1 -6 6 -18 14 -27 8
-8 18 -29 22 -47 5 -25 8 -28 15 -15 8 14 17 9 56 -34 107 -117 349 -178 537
-136 l60 14 -74 1 c-41 1 -88 5 -105 11 -17 5 -43 12 -58 15 -57 11 -25 20 59
16 88 -3 237 13 263 29 10 6 4 11 -21 18 -19 6 -26 11 -16 11 9 1 17 7 18 14
0 8 2 9 5 0 4 -8 12 -8 32 3 15 8 32 14 38 14 18 0 94 59 91 71 -1 7 19 19 46
29 26 9 45 19 41 22 -11 11 64 -18 79 -30 13 -11 18 -9 32 10 l17 23 -7 -25
c-4 -14 -29 -72 -57 -130 -63 -129 -134 -205 -242 -256 -109 -52 -184 -67
-321 -68 -210 0 -312 45 -422 186 -54 71 -102 171 -119 252 -20 92 -20 93 23
88 l37 -5 -25 -20z m-552 7 c-3 -3 -12 -4 -19 -1 -8 3 -5 6 6 6 11 1 17 -2 13
-5z m2468 -14 c3 -5 1 -10 -4 -10 -6 0 -11 5 -11 10 0 6 2 10 4 10 3 0 8 -4
11 -10z m-1351 -25 c3 -9 0 -15 -9 -15 -9 0 -12 6 -9 15 4 8 7 15 9 15 2 0 5
-7 9 -15z m-1019 -4 c3 -5 1 -12 -5 -16 -5 -3 -10 1 -10 9 0 18 6 21 15 7z
m383 -43 c55 -117 62 -139 37 -114 -13 12 -75 139 -75 152 0 2 4 4 9 4 5 0 19
-19 29 -42z m-465 -21 c-6 -30 -20 -31 -37 -4 -8 12 -6 21 9 35 24 23 36 10
28 -31z m2502 33 c3 -5 -1 -10 -9 -10 -8 0 -18 5 -21 10 -3 6 1 10 9 10 8 0
18 -4 21 -10z m-1465 -91 c0 -11 -27 -12 -34 0 -3 4 -3 11 0 14 8 8 34 -3 34
-14z m180 2 c0 -3 -5 -13 -10 -21 -9 -13 -11 -13 -21 0 -8 11 -12 12 -16 3 -3
-9 -18 -11 -46 -7 -58 8 -69 12 -62 24 7 11 155 11 155 1z m-2246 -101 c20
-36 151 -160 169 -160 26 0 29 18 6 30 -15 9 -18 15 -10 23 6 6 11 16 11 21 0
6 -5 4 -10 -4 -8 -13 -10 -12 -10 3 0 11 8 17 23 18 20 0 20 1 3 8 -17 6 -15
9 12 20 17 7 33 19 36 27 6 16 54 19 76 4 11 -7 11 -10 2 -10 -7 0 -10 -4 -7
-10 3 -5 19 -7 35 -3 17 3 36 0 45 -7 8 -6 47 -16 87 -21 62 -8 86 -6 158 12
47 12 92 22 100 23 8 1 34 12 57 24 71 37 85 30 59 -32 -13 -31 -13 -35 4 -39
14 -3 17 -11 14 -28 -4 -19 3 -15 40 24 65 69 57 43 -8 -29 -98 -108 -218
-154 -408 -154 -131 0 -217 19 -325 70 -106 52 -147 101 -221 265 -8 18 48
-50 62 -75z m2239 53 c-7 -2 -19 -2 -25 0 -7 3 -2 5 12 5 14 0 19 -2 13 -5z
m-2092 -86 c-1 -4 -1 -14 -1 -22 0 -8 -4 -15 -10 -15 -5 0 -10 12 -10 26 0 14
5 24 11 22 6 -2 10 -7 10 -11z m3609 -321 c0 -3 -4 -8 -10 -11 -5 -3 -10 -1
-10 4 0 6 5 11 10 11 6 0 10 -2 10 -4z m-2870 -116 c0 -5 -2 -10 -4 -10 -3 0
-8 5 -11 10 -3 6 -1 10 4 10 6 0 11 -4 11 -10z m-2010 -10 c0 -5 -4 -10 -10
-10 -5 0 -10 5 -10 10 0 6 5 10 10 10 6 0 10 -4 10 -10z m4870 -46 c0 -9 8
-23 17 -30 27 -19 7 -29 -22 -10 -27 18 -34 56 -10 56 8 0 15 -7 15 -16z
m-4883 -16 c-3 -8 -6 -5 -6 6 -1 11 2 17 5 13 3 -3 4 -12 1 -19z m4918 -68 c3
-5 1 -10 -4 -10 -6 0 -11 5 -11 10 0 6 2 10 4 10 3 0 8 -4 11 -10z m-1810 -42
c3 -13 1 -36 -4 -53 l-9 -30 -1 30 c-1 17 -4 40 -7 53 -4 13 -2 22 5 22 6 0
13 -10 16 -22z m-188 -20 c-3 -8 -6 -5 -6 6 -1 11 2 17 5 13 3 -3 4 -12 1 -19z
m-2836 -19 c-9 -22 -10 -22 -10 -3 -1 11 2 24 6 27 12 12 14 0 4 -24z m2509
-49 c0 -10 -32 -30 -49 -30 -15 0 -14 27 2 33 21 9 47 7 47 -3z m2370 -96 c0
-8 5 -13 12 -11 6 1 14 -6 16 -15 2 -11 -2 -18 -12 -18 -9 0 -16 -8 -16 -20 0
-11 -4 -20 -9 -20 -18 0 -28 60 -15 94 7 18 24 12 24 -10z m-3510 -20 c-18
-21 -24 -10 -9 18 8 14 14 18 17 10 2 -7 -2 -19 -8 -28z m-10 -64 c0 -5 -5
-10 -11 -10 -5 0 -7 5 -4 10 3 6 8 10 11 10 2 0 4 -4 4 -10z m1384 -26 c8 -3
12 -12 9 -20 -3 -8 0 -14 6 -14 6 0 11 -7 11 -15 0 -8 7 -15 15 -15 8 0 15 -4
15 -9 0 -10 -60 -20 -105 -17 -16 1 -33 -3 -36 -8 -7 -10 -17 -10 -159 -5 -52
2 -86 5 -75 7 11 2 24 10 28 18 5 9 18 11 37 7 20 -3 30 -1 30 6 0 7 8 11 18
10 31 -3 41 1 60 21 13 14 34 22 65 24 26 1 50 6 54 9 8 8 8 8 27 1z m176 -17
c30 -14 32 -16 13 -18 -13 -1 -29 -2 -35 -3 -7 -1 -18 2 -25 6 -6 5 -14 5 -18
-2 -9 -15 -25 -2 -25 20 0 24 36 22 90 -3z m-562 -30 c3 -13 -4 -16 -33 -13
-45 3 -63 19 -46 40 11 13 18 13 44 2 18 -7 33 -20 35 -29z m662 29 c0 -2 -9
-6 -20 -9 -11 -3 -20 -1 -20 4 0 5 9 9 20 9 11 0 20 -2 20 -4z m-2800 -41 c0
-8 -4 -15 -10 -15 -5 0 -10 7 -10 15 0 8 5 15 10 15 6 0 10 -7 10 -15z m4644
-77 c22 -43 20 -58 -14 -97 -17 -18 -30 -40 -30 -47 0 -24 -19 -24 -44 -1 -25
24 -35 57 -17 57 5 0 12 16 15 35 4 21 13 35 22 35 8 0 18 8 21 18 5 14 21 31
30 32 1 0 9 -14 17 -32z m-2022 7 c48 -6 77 -25 39 -25 -12 0 -21 -4 -21 -10
0 -18 -39 -50 -53 -44 -9 3 -17 -3 -20 -15 -7 -28 -33 -37 -61 -21 -18 9 -29
9 -44 1 -11 -6 -44 -11 -72 -11 -30 0 -61 -7 -75 -16 -19 -12 -51 -17 -128
-17 -176 -1 -225 3 -239 16 -7 7 -38 14 -68 15 -62 4 -100 23 -100 52 0 10 10
30 23 44 20 23 26 24 66 17 25 -5 48 -17 54 -27 9 -16 11 -16 24 2 12 16 25
19 81 17 37 -1 77 -8 89 -14 17 -9 26 -9 37 0 10 8 46 12 103 11 48 -1 104 3
123 9 19 6 53 11 75 12 22 0 49 4 60 9 11 4 29 7 40 5 11 -2 41 -7 67 -10z
m258 -18 c0 -13 -5 -28 -11 -34 -6 -6 -11 -41 -11 -79 0 -38 -7 -94 -14 -124
-8 -30 -11 -62 -8 -72 4 -12 -2 -19 -18 -23 -20 -5 -23 -13 -25 -52 -1 -26 3
-55 8 -65 6 -12 6 -18 0 -18 -6 0 -15 9 -21 20 -6 11 -16 20 -22 20 -6 0 -5
-6 3 -17 12 -15 12 -16 -3 -10 -12 4 -18 2 -18 -8 0 -9 -6 -12 -15 -9 -10 4
-15 0 -15 -10 0 -9 -7 -19 -15 -22 -20 -8 -13 -63 9 -76 9 -5 16 -18 16 -29 0
-12 10 -29 23 -40 l22 -19 -24 -6 -24 -7 24 -18 c13 -10 21 -20 18 -23 -9 -9
-60 34 -54 45 4 5 2 9 -3 9 -5 0 -12 9 -15 20 -3 11 -1 20 4 20 13 0 11 13 -4
34 -11 15 -13 9 -11 -41 1 -32 5 -70 9 -85 6 -24 5 -27 -14 -23 -12 2 -36 -2
-53 -10 -31 -13 -32 -13 -8 -17 31 -4 38 -34 10 -43 -12 -4 -19 -14 -18 -23 2
-13 -3 -16 -21 -14 -21 2 -23 -1 -19 -30 2 -22 -3 -39 -14 -50 -17 -17 -18
-16 -18 20 -1 65 -4 82 -15 79 -5 -2 -11 -15 -13 -28 -2 -14 -13 -29 -25 -34
-14 -7 -21 -17 -19 -30 2 -15 1 -17 -6 -6 -7 9 -12 10 -16 2 -10 -15 -43 -14
-48 2 -3 6 -4 22 -3 35 2 27 -15 29 -22 2 -3 -11 -11 -20 -18 -20 -10 0 -11
-8 -5 -29 9 -33 5 -41 -22 -41 -19 0 -24 15 -8 25 18 11 11 22 -21 35 -34 15
-49 4 -49 -35 0 -18 -6 -21 -50 -21 -41 0 -50 3 -50 18 0 10 -7 18 -15 18 -18
0 -20 -21 -3 -38 6 -6 8 -15 4 -19 -4 -4 -10 -3 -14 3 -4 6 -14 13 -22 16 -8
2 -15 18 -16 36 -3 51 -11 67 -30 52 -8 -7 -11 -16 -6 -19 5 -3 7 -25 4 -49
-4 -42 -5 -42 -23 -26 -22 20 -25 40 -6 47 9 3 9 9 1 23 -19 32 -31 26 -46
-23 -18 -55 -35 -66 -36 -23 0 16 3 30 8 30 10 0 7 26 -4 37 -4 4 -11 1 -16
-7 -5 -8 -12 -11 -17 -7 -4 5 -1 12 6 17 8 4 15 25 15 47 1 26 7 39 18 41 10
2 15 12 14 28 -1 25 -10 31 -21 14 -10 -16 -42 -12 -49 7 -4 9 -2 21 4 27 7 7
10 5 10 -7 0 -20 21 -22 38 -5 6 6 20 12 29 13 10 1 33 5 51 9 21 5 32 4 32
-3 0 -6 5 -11 11 -11 6 0 24 -9 39 -20 18 -13 31 -16 35 -10 3 5 1 10 -4 10
-18 0 -12 47 6 54 25 10 37 -8 22 -32 -7 -12 -9 -25 -5 -29 5 -4 11 -2 13 5 3
7 16 17 30 23 13 5 21 13 18 19 -8 13 1 13 25 0 14 -7 20 -6 24 6 5 14 9 14
23 3 9 -8 31 -14 50 -14 33 0 42 8 23 20 -18 11 -11 23 10 18 11 -3 20 -9 20
-14 0 -5 5 -9 11 -9 8 0 7 6 -2 17 -11 13 -11 17 -1 20 6 3 9 9 6 15 -5 7 2 9
18 5 15 -4 37 -1 53 7 15 8 34 12 41 9 18 -7 18 1 -1 37 -21 41 -65 65 -65 34
0 -12 -11 -15 -55 -13 -31 1 -64 8 -73 15 -9 7 -28 10 -42 8 -14 -3 -34 1 -45
9 -28 21 -6 44 51 53 28 4 44 11 44 20 0 8 10 14 24 14 33 0 98 29 91 40 -4 6
7 10 24 10 22 0 31 5 31 16 0 12 -6 15 -22 9 -13 -3 -44 -9 -70 -12 -41 -5
-48 -9 -48 -28 0 -22 -2 -22 -87 -19 -108 5 -218 20 -245 35 -14 7 -23 8 -30
1 -15 -15 -38 -3 -38 20 0 12 -6 19 -17 17 -34 -4 -81 22 -87 47 -4 13 -14 24
-23 24 -28 0 -5 13 29 16 75 7 140 6 148 -2 5 -5 10 -20 12 -34 3 -23 7 -25
51 -24 37 2 47 -2 48 -15 0 -10 2 -11 6 -3 2 6 9 10 14 7 5 -4 16 10 26 29 9
20 21 36 25 36 5 0 7 4 3 9 -3 6 9 8 27 5 48 -6 145 16 208 47 30 14 85 32
121 38 82 14 79 14 79 -4 0 -8 9 -19 19 -25 23 -12 34 -13 27 -2 -2 4 2 18 9
32 9 18 10 28 2 41 -9 15 -6 22 16 39 15 12 27 28 27 35 0 18 66 69 78 61 6
-3 15 1 22 9 20 24 50 19 50 -8z m-1673 -60 c14 5 15 0 10 -36 -7 -55 -13 -59
-39 -31 -18 19 -19 26 -9 42 9 15 9 23 0 34 -9 11 -8 18 2 31 13 15 14 13 17
-15 2 -24 7 -29 19 -25z m543 -2 c0 -8 -4 -15 -10 -15 -5 0 -7 7 -4 15 4 8 8
15 10 15 2 0 4 -7 4 -15z m1332 -75 c15 -26 15 -35 5 -58 -16 -36 -39 -62 -54
-62 -18 0 -16 47 2 54 8 3 15 9 14 13 -4 24 2 83 9 83 4 0 15 -14 24 -30z
m1578 26 c0 -3 -4 -8 -10 -11 -5 -3 -10 -1 -10 4 0 6 5 11 10 11 6 0 10 -2 10
-4z m-2220 -36 c0 -5 -4 -10 -10 -10 -5 0 -10 5 -10 10 0 6 5 10 10 10 6 0 10
-4 10 -10z m-2857 -100 c3 -11 1 -20 -4 -20 -5 0 -9 9 -9 20 0 11 2 20 4 20 2
0 6 -9 9 -20z m2577 11 c0 -16 -24 -18 -70 -5 l-45 12 58 1 c31 1 57 -3 57 -8z
m-294 -236 c6 -8 14 -12 17 -8 4 3 7 1 7 -5 0 -13 -39 -16 -55 -4 -5 4 -17 16
-25 26 -14 18 -13 19 15 12 17 -4 35 -14 41 -21z m-2182 -95 c-1 -19 -3 -38
-3 -42 -1 -5 -6 -8 -12 -8 -6 0 -9 9 -6 20 3 12 0 20 -7 20 -7 0 -10 15 -8 45
4 45 4 45 21 23 10 -14 16 -37 15 -58z m3086 40 c0 -5 -2 -10 -4 -10 -3 0 -8
5 -11 10 -3 6 -1 10 4 10 6 0 11 -4 11 -10z m1922 -32 c-7 -7 -12 -8 -12 -2 0
14 12 26 19 19 2 -3 -1 -11 -7 -17z m-5042 -130 c9 -39 17 -55 26 -51 13 5 15
1 32 -82 8 -38 -2 -85 -18 -85 -8 0 -6 -54 5 -100 7 -30 6 -33 -7 -22 -9 7
-13 22 -10 37 2 14 0 25 -4 25 -5 0 -15 14 -22 30 -14 32 -8 104 10 127 7 8 3
19 -10 33 -18 20 -42 114 -42 166 0 34 25 -15 40 -78z m1954 67 c5 -13 0 -26
-21 -64 -6 -10 -33 24 -33 40 0 16 5 18 28 14 15 -3 21 -2 15 1 -15 7 -17 24
-4 24 5 0 12 -7 15 -15z m-1874 -11 c0 -8 -5 -12 -10 -9 -6 4 -8 11 -5 16 9
14 15 11 15 -7z m1980 -28 c27 -6 47 -32 61 -78 7 -26 6 -28 -12 -23 -12 4
-31 0 -45 -10 -15 -10 -32 -14 -42 -9 -9 4 -28 6 -41 5 -17 -2 -21 1 -15 10 4
7 9 27 11 43 2 17 8 33 14 36 5 4 9 11 8 16 -3 19 2 25 19 21 9 -3 28 -8 42
-11z m-2010 -32 c0 -8 -4 -14 -10 -14 -5 0 -10 9 -10 21 0 11 5 17 10 14 6 -3
10 -13 10 -21z m2400 -14 c0 -5 -8 -10 -17 -10 -15 0 -16 2 -3 10 19 12 20 12
20 0z m-2303 -102 c-3 -8 -6 -5 -6 6 -1 11 2 17 5 13 3 -3 4 -12 1 -19z m2107
-26 c-6 -4 -14 -16 -18 -27 -6 -13 -10 -16 -13 -7 -6 15 14 42 31 42 8 0 8 -3
0 -8z m-2107 -74 c-3 -8 -6 -5 -6 6 -1 11 2 17 5 13 3 -3 4 -12 1 -19z m2583
-28 c0 -11 -4 -20 -10 -20 -5 0 -10 9 -10 20 0 11 5 20 10 20 6 0 10 -9 10
-20z m-2446 -45 c-5 -39 -4 -44 10 -39 10 4 16 1 16 -8 0 -18 -20 -38 -38 -38
-12 0 -13 11 -7 58 4 31 9 60 12 65 11 18 14 4 7 -38z m2516 20 c0 -8 -2 -15
-4 -15 -2 0 -6 7 -10 15 -3 8 -1 15 4 15 6 0 10 -7 10 -15z m-2790 -21 c0 -16
-2 -16 -24 -8 -13 5 -14 9 -5 20 13 16 29 9 29 -12z m5186 15 c3 -6 2 -14 -4
-18 -11 -7 -11 -36 1 -47 7 -7 11 10 8 34 -1 6 2 12 7 12 14 0 31 -22 26 -35
-3 -6 2 -18 11 -25 8 -7 15 -20 15 -29 0 -9 5 -22 12 -29 9 -9 8 -12 -5 -12
-10 0 -28 -7 -40 -15 -33 -21 -67 3 -67 49 0 21 -6 36 -15 40 -8 3 -15 11 -15
18 0 9 3 9 12 0 17 -17 31 -15 24 4 -7 19 3 64 14 64 5 0 12 -5 16 -11z
m-4985 -60 l-9 -34 -1 31 c-1 17 2 34 6 37 12 13 14 -1 4 -34z m-221 -9 c0 -5
-5 -10 -11 -10 -5 0 -7 5 -4 10 3 6 8 10 11 10 2 0 4 -4 4 -10z m76 -88 c-12
-12 -18 8 -10 35 l8 28 4 -28 c2 -16 1 -31 -2 -35z m3056 -73 c-4 -27 -28 -50
-46 -43 -7 3 -19 -2 -26 -10 -7 -9 -16 -14 -20 -11 -5 3 -11 1 -15 -5 -9 -15
46 -12 75 5 14 8 36 14 49 15 23 0 23 -1 8 -18 -10 -10 -17 -25 -17 -33 -1
-23 -24 -47 -53 -54 -31 -8 -34 -20 -12 -41 20 -21 19 -31 -5 -37 -11 -3 -20
-13 -20 -22 0 -10 -7 -15 -17 -14 -10 2 -29 -1 -41 -5 l-24 -8 21 -14 c20 -14
20 -16 4 -47 -9 -18 -24 -39 -33 -47 -9 -8 -16 -23 -14 -32 1 -13 -5 -18 -19
-18 -12 0 -28 -4 -36 -9 -12 -8 -12 -12 -2 -25 11 -12 11 -16 1 -16 -8 0 -9
-4 -3 -12 5 -7 7 -23 4 -34 -5 -17 -13 -21 -41 -19 -58 4 -124 17 -136 26 -6
5 -39 10 -73 11 -53 1 -65 5 -82 26 -10 14 -19 34 -19 46 0 23 -48 81 -59 70
-3 -4 0 -9 7 -11 6 -3 12 -12 12 -22 0 -9 5 -22 12 -29 9 -9 9 -12 -1 -12 -9
0 -11 -8 -7 -25 5 -19 2 -25 -9 -25 -10 0 -13 5 -9 13 5 8 2 7 -9 -2 -10 -8
-20 -11 -24 -7 -3 3 0 6 7 6 7 0 1 12 -14 27 -18 18 -23 30 -16 37 7 7 14 4
23 -9 8 -10 19 -15 25 -11 18 11 14 26 -6 26 -10 0 -22 4 -27 9 -6 5 -23 11
-39 13 -23 2 -31 10 -37 31 -7 24 -5 27 19 27 15 0 39 -6 54 -14 15 -8 29 -12
32 -9 7 7 -19 33 -33 33 -30 0 -81 36 -91 63 -13 39 -14 37 13 37 22 0 40 16
63 56 10 16 22 19 80 17 189 -5 271 -4 294 5 24 10 23 11 -15 13 -22 1 -57 1
-79 0 -27 -2 -36 1 -31 9 4 6 13 9 21 6 7 -3 34 1 59 8 26 8 47 10 51 5 3 -5
14 -9 25 -9 11 0 17 -4 14 -10 -3 -5 3 -10 14 -10 12 0 21 7 21 16 0 8 -4 12
-10 9 -5 -3 -10 -2 -10 4 0 5 -8 11 -17 13 -23 5 37 34 88 42 20 4 54 15 77
26 23 11 47 20 55 20 7 0 22 9 33 19 24 25 40 21 36 -10z m-472 -129 c0 -5 -9
-10 -21 -10 -11 0 -17 5 -14 10 3 6 13 10 21 10 8 0 14 -4 14 -10z"/>
<path d="M2533 5065 c-7 -8 -13 -19 -13 -24 0 -10 39 -36 44 -29 11 18 23 57
19 62 -11 11 -38 6 -50 -9z"/>
<path d="M2726 5031 c-22 -25 -17 -55 10 -59 26 -4 47 20 42 50 -4 30 -29 34
-52 9z"/>
<path d="M2510 4934 c0 -31 23 -28 28 4 2 15 -2 22 -12 22 -11 0 -16 -9 -16
-26z"/>
<path d="M4925 4710 c3 -5 8 -10 11 -10 2 0 4 5 4 10 0 6 -5 10 -11 10 -5 0
-7 -4 -4 -10z"/>
<path d="M4528 4453 c7 -3 16 -2 19 1 4 3 -2 6 -13 5 -11 0 -14 -3 -6 -6z"/>
<path d="M2555 3600 c-3 -6 1 -7 9 -4 18 7 21 14 7 14 -6 0 -13 -4 -16 -10z"/>
<path d="M4586 2772 c-2 -4 -1 -14 4 -22 4 -7 6 -20 3 -29 -5 -13 -3 -13 7 -4
8 7 10 19 5 30 -5 10 -7 21 -7 26 3 9 -6 9 -12 -1z"/>
<path d="M3991 2896 c-9 -11 -8 -15 5 -20 24 -9 28 -7 15 7 -6 8 -8 17 -4 20
3 4 4 7 1 7 -3 0 -11 -6 -17 -14z"/>
<path d="M4015 2460 c-3 -5 -1 -10 4 -10 6 0 11 5 11 10 0 6 -2 10 -4 10 -3 0
-8 -4 -11 -10z"/>
<path d="M4190 2370 c0 -5 5 -10 11 -10 5 0 7 5 4 10 -3 6 -8 10 -11 10 -2 0
-4 -4 -4 -10z"/>
<path d="M4045 2200 c3 -5 8 -10 11 -10 2 0 4 5 4 10 0 6 -5 10 -11 10 -5 0
-7 -4 -4 -10z"/>
<path d="M3630 2033 c0 -5 5 -15 10 -23 8 -12 10 -11 10 8 0 12 -4 22 -10 22
-5 0 -10 -3 -10 -7z"/>
<path d="M3500 2005 c0 -18 31 -56 41 -50 15 10 11 25 -8 32 -10 4 -21 11 -25
17 -5 7 -8 7 -8 1z"/>
<path d="M3760 1942 c0 -5 7 -13 16 -16 10 -4 14 -1 12 6 -5 15 -28 23 -28 10z"/>
<path d="M3695 1930 c3 -5 8 -10 11 -10 2 0 4 5 4 10 0 6 -5 10 -11 10 -5 0
-7 -4 -4 -10z"/>
<path d="M1400 1759 c0 -5 5 -7 10 -4 6 3 10 8 10 11 0 2 -4 4 -10 4 -5 0 -10
-5 -10 -11z"/>
<path d="M4092 1539 c2 -7 10 -15 17 -17 8 -3 12 1 9 9 -2 7 -10 15 -17 17 -8
3 -12 -1 -9 -9z"/>
<path d="M3680 1151 c0 -10 30 -24 37 -17 3 2 -5 9 -16 16 -12 6 -21 7 -21 1z"/>
<path d="M1039 3293 c-29 -31 -62 -96 -62 -122 0 -9 -3 -20 -7 -26 -5 -5 -11
-28 -14 -50 -6 -40 -6 -40 6 -10 7 17 20 44 29 60 9 17 19 46 23 65 3 19 18
46 32 61 15 15 25 32 22 39 -2 6 -15 -1 -29 -17z"/>
<path d="M1172 3300 c0 -14 2 -19 5 -12 2 6 2 18 0 25 -3 6 -5 1 -5 -13z"/>
<path d="M1065 3260 c-3 -5 -2 -10 4 -10 5 0 13 5 16 10 3 6 2 10 -4 10 -5 0
-13 -4 -16 -10z"/>
<path d="M1104 3242 c-17 -10 -36 -84 -25 -95 12 -12 27 17 34 66 3 20 5 37 4
37 -1 0 -7 -4 -13 -8z"/>
<path d="M1110 3120 c-18 -35 -18 -35 -39 -16 -19 17 -20 17 -36 -8 -9 -14
-13 -31 -9 -37 5 -9 10 -7 16 7 4 11 5 -2 2 -31 -5 -48 -5 -49 10 -25 8 14 18
32 22 40 4 8 18 27 32 42 13 14 22 32 20 40 -3 8 -9 4 -18 -12z"/>
<path d="M6255 3117 c-4 -9 -4 -34 0 -55 6 -32 8 -34 15 -16 11 27 -4 97 -15
71z"/>
<path d="M1006 3041 c-4 -7 -5 -15 -2 -18 9 -9 19 4 14 18 -4 11 -6 11 -12 0z"/>
<path d="M1165 3020 c-3 -5 -2 -10 4 -10 5 0 13 5 16 10 3 6 2 10 -4 10 -5 0
-13 -4 -16 -10z"/>
<path d="M1087 3013 c-10 -10 -8 -53 2 -53 5 0 9 14 9 30 -1 33 -1 33 -11 23z"/>
<path d="M997 3003 c-4 -3 -7 -18 -6 -32 1 -26 1 -25 10 3 9 31 7 41 -4 29z"/>
<path d="M1136 2965 c-3 -8 -1 -15 4 -15 6 0 10 7 10 15 0 8 -2 15 -4 15 -2 0
-6 -7 -10 -15z"/>
<path d="M1162 2944 c-10 -12 -10 -14 2 -14 17 0 30 16 19 23 -5 3 -14 -1 -21
-9z"/>
<path d="M1046 2918 c-20 -38 -20 -45 -2 -45 9 0 14 10 14 27 -1 15 2 32 6 39
4 6 5 11 2 11 -2 0 -12 -14 -20 -32z"/>
<path d="M974 2915 c-12 -19 -15 -43 -13 -104 2 -43 1 -77 -3 -74 -5 2 -8 -14
-8 -36 0 -21 -3 -46 -6 -55 -4 -11 0 -16 11 -16 15 0 17 -7 11 -46 -5 -40 -4
-45 12 -42 19 4 28 40 16 66 -11 26 -14 61 -4 67 4 3 6 15 2 27 -3 13 -1 19 5
15 7 -5 8 4 3 28 -4 19 -6 35 -4 35 3 0 1 8 -4 18 -5 9 -6 45 -3 80 4 34 6 62
4 62 -1 0 -10 -11 -19 -25z"/>
<path d="M1094 2924 c3 -9 6 -23 7 -32 0 -14 2 -13 9 3 13 31 11 45 -6 45 -11
0 -14 -5 -10 -16z"/>
<path d="M1034 2836 c-12 -13 -8 -66 5 -66 8 0 31 50 31 67 0 17 -22 16 -36
-1z"/>
<path d="M965 2493 c4 -21 9 -47 13 -58 3 -11 5 -26 4 -32 -2 -7 1 -13 6 -13
12 0 22 62 12 75 -4 6 -10 22 -14 38 -10 42 -28 33 -21 -10z"/>
<path d="M6282 2365 c0 -16 2 -22 5 -12 2 9 2 23 0 30 -3 6 -5 -1 -5 -18z"/>
<path d="M6250 2296 c0 -7 -10 -21 -22 -29 -20 -14 -20 -16 -5 -16 10 -1 20 6
23 14 4 8 10 12 15 9 5 -3 9 4 9 15 0 12 -4 21 -10 21 -5 0 -10 -6 -10 -14z"/>
<path d="M1041 1864 c0 -11 3 -14 6 -6 3 7 2 16 -1 19 -3 4 -6 -2 -5 -13z"/>
<path d="M6436 1507 c3 -10 9 -15 12 -12 3 3 0 11 -7 18 -10 9 -11 8 -5 -6z"/>
</g>
</svg>
